<mxfile host="app.diagrams.net" modified="2021-12-04T01:44:11.637Z" agent="5.0 (Windows NT 6.3; Win64; x64) AppleWebKit/537.36 (KHTML, like Gecko) Chrome/96.0.4664.45 Safari/537.36" etag="W56eUfvW95knrKZ4uhxU" version="15.9.1" type="github">
  <diagram id="C5RBs43oDa-KdzZeNtuy" name="Page-1">
    <mxGraphModel dx="1673" dy="901" grid="1" gridSize="10" guides="1" tooltips="1" connect="1" arrows="1" fold="1" page="1" pageScale="1" pageWidth="827" pageHeight="1169" math="0" shadow="0">
      <root>
        <mxCell id="WIyWlLk6GJQsqaUBKTNV-0" />
        <mxCell id="WIyWlLk6GJQsqaUBKTNV-1" parent="WIyWlLk6GJQsqaUBKTNV-0" />
        <mxCell id="WIyWlLk6GJQsqaUBKTNV-2" value="" style="rounded=0;html=1;jettySize=auto;orthogonalLoop=1;fontSize=11;endArrow=block;endFill=0;endSize=8;strokeWidth=1;shadow=0;labelBackgroundColor=none;edgeStyle=orthogonalEdgeStyle;" parent="WIyWlLk6GJQsqaUBKTNV-1" source="WIyWlLk6GJQsqaUBKTNV-3" target="WIyWlLk6GJQsqaUBKTNV-6" edge="1">
          <mxGeometry relative="1" as="geometry" />
        </mxCell>
        <mxCell id="O6p-Ms7gmNQ-Mlg78TJN-30" style="edgeStyle=orthogonalEdgeStyle;rounded=0;orthogonalLoop=1;jettySize=auto;html=1;strokeColor=#000000;" edge="1" parent="WIyWlLk6GJQsqaUBKTNV-1" source="WIyWlLk6GJQsqaUBKTNV-3" target="O6p-Ms7gmNQ-Mlg78TJN-29">
          <mxGeometry relative="1" as="geometry" />
        </mxCell>
        <mxCell id="O6p-Ms7gmNQ-Mlg78TJN-38" style="edgeStyle=orthogonalEdgeStyle;rounded=0;orthogonalLoop=1;jettySize=auto;html=1;exitX=1;exitY=0.5;exitDx=0;exitDy=0;entryX=0;entryY=0.5;entryDx=0;entryDy=0;strokeColor=#000000;" edge="1" parent="WIyWlLk6GJQsqaUBKTNV-1" source="WIyWlLk6GJQsqaUBKTNV-3" target="O6p-Ms7gmNQ-Mlg78TJN-31">
          <mxGeometry relative="1" as="geometry" />
        </mxCell>
        <mxCell id="WIyWlLk6GJQsqaUBKTNV-3" value="Start:&lt;br&gt;" style="rounded=1;whiteSpace=wrap;html=1;fontSize=12;glass=0;strokeWidth=1;shadow=0;" parent="WIyWlLk6GJQsqaUBKTNV-1" vertex="1">
          <mxGeometry x="97.5" width="130" height="100" as="geometry" />
        </mxCell>
        <mxCell id="O6p-Ms7gmNQ-Mlg78TJN-13" style="edgeStyle=orthogonalEdgeStyle;rounded=0;orthogonalLoop=1;jettySize=auto;html=1;exitX=1;exitY=0.5;exitDx=0;exitDy=0;entryX=0;entryY=0.5;entryDx=0;entryDy=0;fillColor=#a20025;strokeColor=#6F0000;" edge="1" parent="WIyWlLk6GJQsqaUBKTNV-1" source="WIyWlLk6GJQsqaUBKTNV-6" target="O6p-Ms7gmNQ-Mlg78TJN-10">
          <mxGeometry relative="1" as="geometry" />
        </mxCell>
        <mxCell id="O6p-Ms7gmNQ-Mlg78TJN-24" style="edgeStyle=orthogonalEdgeStyle;rounded=0;orthogonalLoop=1;jettySize=auto;html=1;exitX=0.5;exitY=1;exitDx=0;exitDy=0;entryX=0.5;entryY=0;entryDx=0;entryDy=0;fillColor=#0050ef;strokeColor=#000000;" edge="1" parent="WIyWlLk6GJQsqaUBKTNV-1" source="WIyWlLk6GJQsqaUBKTNV-6" target="WIyWlLk6GJQsqaUBKTNV-10">
          <mxGeometry relative="1" as="geometry" />
        </mxCell>
        <mxCell id="WIyWlLk6GJQsqaUBKTNV-6" value="Wait for Click:&lt;br&gt;Click" style="rhombus;whiteSpace=wrap;html=1;shadow=0;fontFamily=Helvetica;fontSize=12;align=center;strokeWidth=1;spacing=6;spacingTop=-4;" parent="WIyWlLk6GJQsqaUBKTNV-1" vertex="1">
          <mxGeometry x="100" y="160" width="125" height="110" as="geometry" />
        </mxCell>
        <mxCell id="O6p-Ms7gmNQ-Mlg78TJN-21" style="edgeStyle=orthogonalEdgeStyle;rounded=0;orthogonalLoop=1;jettySize=auto;html=1;entryX=0;entryY=0.25;entryDx=0;entryDy=0;fillColor=#d80073;strokeColor=#A50040;" edge="1" parent="WIyWlLk6GJQsqaUBKTNV-1" source="WIyWlLk6GJQsqaUBKTNV-10" target="O6p-Ms7gmNQ-Mlg78TJN-16">
          <mxGeometry relative="1" as="geometry" />
        </mxCell>
        <mxCell id="O6p-Ms7gmNQ-Mlg78TJN-25" style="edgeStyle=orthogonalEdgeStyle;rounded=0;orthogonalLoop=1;jettySize=auto;html=1;exitX=0.5;exitY=1;exitDx=0;exitDy=0;entryX=0.362;entryY=-0.015;entryDx=0;entryDy=0;entryPerimeter=0;" edge="1" parent="WIyWlLk6GJQsqaUBKTNV-1" source="WIyWlLk6GJQsqaUBKTNV-10" target="WIyWlLk6GJQsqaUBKTNV-12">
          <mxGeometry relative="1" as="geometry" />
        </mxCell>
        <mxCell id="O6p-Ms7gmNQ-Mlg78TJN-27" style="edgeStyle=orthogonalEdgeStyle;rounded=0;orthogonalLoop=1;jettySize=auto;html=1;exitX=0;exitY=0.5;exitDx=0;exitDy=0;entryX=0;entryY=1;entryDx=0;entryDy=0;strokeColor=#000000;" edge="1" parent="WIyWlLk6GJQsqaUBKTNV-1" source="WIyWlLk6GJQsqaUBKTNV-10" target="WIyWlLk6GJQsqaUBKTNV-6">
          <mxGeometry relative="1" as="geometry" />
        </mxCell>
        <mxCell id="WIyWlLk6GJQsqaUBKTNV-10" value="Clicked Object&lt;br&gt;Yes&lt;br&gt;No" style="rhombus;whiteSpace=wrap;html=1;shadow=0;fontFamily=Helvetica;fontSize=12;align=center;strokeWidth=1;spacing=6;spacingTop=-4;" parent="WIyWlLk6GJQsqaUBKTNV-1" vertex="1">
          <mxGeometry x="70" y="360" width="150" height="160" as="geometry" />
        </mxCell>
        <mxCell id="O6p-Ms7gmNQ-Mlg78TJN-23" style="edgeStyle=orthogonalEdgeStyle;rounded=0;orthogonalLoop=1;jettySize=auto;html=1;fillColor=#a20025;strokeColor=#6F0000;" edge="1" parent="WIyWlLk6GJQsqaUBKTNV-1" source="WIyWlLk6GJQsqaUBKTNV-12" target="O6p-Ms7gmNQ-Mlg78TJN-22">
          <mxGeometry relative="1" as="geometry">
            <Array as="points">
              <mxPoint x="230" y="945" />
              <mxPoint x="230" y="945" />
            </Array>
          </mxGeometry>
        </mxCell>
        <mxCell id="O6p-Ms7gmNQ-Mlg78TJN-26" style="edgeStyle=orthogonalEdgeStyle;rounded=0;orthogonalLoop=1;jettySize=auto;html=1;exitX=0;exitY=0.5;exitDx=0;exitDy=0;entryX=0;entryY=0.5;entryDx=0;entryDy=0;" edge="1" parent="WIyWlLk6GJQsqaUBKTNV-1" source="WIyWlLk6GJQsqaUBKTNV-12" target="WIyWlLk6GJQsqaUBKTNV-6">
          <mxGeometry relative="1" as="geometry">
            <Array as="points">
              <mxPoint x="40" y="945" />
              <mxPoint x="40" y="215" />
            </Array>
          </mxGeometry>
        </mxCell>
        <mxCell id="O6p-Ms7gmNQ-Mlg78TJN-28" style="edgeStyle=orthogonalEdgeStyle;rounded=0;orthogonalLoop=1;jettySize=auto;html=1;strokeColor=#000000;" edge="1" parent="WIyWlLk6GJQsqaUBKTNV-1" source="WIyWlLk6GJQsqaUBKTNV-12" target="O6p-Ms7gmNQ-Mlg78TJN-22">
          <mxGeometry relative="1" as="geometry" />
        </mxCell>
        <mxCell id="WIyWlLk6GJQsqaUBKTNV-12" value="Spawn Object:&lt;br&gt;FINISHED" style="rounded=1;whiteSpace=wrap;html=1;fontSize=12;glass=0;strokeWidth=1;shadow=0;" parent="WIyWlLk6GJQsqaUBKTNV-1" vertex="1">
          <mxGeometry x="102.5" y="725" width="120" height="40" as="geometry" />
        </mxCell>
        <mxCell id="O6p-Ms7gmNQ-Mlg78TJN-10" value="STATE INFORMATION:&lt;br&gt;&lt;br&gt;GetMouseButtonDown: Click&lt;br&gt;&lt;br&gt;Button - Left&lt;br&gt;Send Event - Click&lt;br&gt;Store Result - None&lt;br&gt;In Update Only - True" style="whiteSpace=wrap;html=1;aspect=fixed;" vertex="1" parent="WIyWlLk6GJQsqaUBKTNV-1">
          <mxGeometry x="240" y="110" width="160" height="160" as="geometry" />
        </mxCell>
        <mxCell id="O6p-Ms7gmNQ-Mlg78TJN-16" value="STATE INFORMATION:&lt;br&gt;&lt;br&gt;Mouse Pick:&lt;br&gt;Ray Distance - 100&lt;br&gt;Store Did Pick Object - None&amp;nbsp;&lt;br&gt;Store Game Object - hitObject&lt;br&gt;Store Point - hitPosition&lt;br&gt;Store Normal - None&lt;br&gt;Store Distance - None&lt;br&gt;Layer Mask - 0&lt;br&gt;Invert Mask - False&lt;br&gt;Every Frame - False&lt;br&gt;&lt;br&gt;-------------------&lt;br&gt;&lt;br&gt;Game Object is Null:&lt;br&gt;Game Object - hitObject&lt;br&gt;Is Null - No&lt;br&gt;Is Not Null - Yes&amp;nbsp;&lt;br&gt;Store Result - None&lt;br&gt;Every Frame - False" style="whiteSpace=wrap;html=1;aspect=fixed;" vertex="1" parent="WIyWlLk6GJQsqaUBKTNV-1">
          <mxGeometry x="240" y="330" width="310" height="310" as="geometry" />
        </mxCell>
        <mxCell id="O6p-Ms7gmNQ-Mlg78TJN-22" value="STATE INFORMATION:&lt;br&gt;&lt;br&gt;Create:spawnObject:&lt;br&gt;Game Object - spawnObject&lt;br&gt;Parent - None&lt;br&gt;Spawn Point - None&lt;br&gt;Position - hitPosition&lt;br&gt;Rotation - None&lt;br&gt;Store Object - None&lt;br&gt;" style="whiteSpace=wrap;html=1;aspect=fixed;" vertex="1" parent="WIyWlLk6GJQsqaUBKTNV-1">
          <mxGeometry x="240" y="650" width="190" height="190" as="geometry" />
        </mxCell>
        <mxCell id="O6p-Ms7gmNQ-Mlg78TJN-29" value="EVENTS:&lt;br&gt;Click&lt;br&gt;Finished&lt;br&gt;No&lt;br&gt;Yes" style="whiteSpace=wrap;html=1;aspect=fixed;" vertex="1" parent="WIyWlLk6GJQsqaUBKTNV-1">
          <mxGeometry x="660" width="100" height="100" as="geometry" />
        </mxCell>
        <mxCell id="O6p-Ms7gmNQ-Mlg78TJN-33" value="" style="edgeStyle=orthogonalEdgeStyle;rounded=0;orthogonalLoop=1;jettySize=auto;html=1;strokeColor=#000000;" edge="1" parent="WIyWlLk6GJQsqaUBKTNV-1" source="O6p-Ms7gmNQ-Mlg78TJN-31" target="O6p-Ms7gmNQ-Mlg78TJN-32">
          <mxGeometry relative="1" as="geometry" />
        </mxCell>
        <mxCell id="O6p-Ms7gmNQ-Mlg78TJN-31" value="VARIABLES:&lt;br&gt;" style="whiteSpace=wrap;html=1;aspect=fixed;" vertex="1" parent="WIyWlLk6GJQsqaUBKTNV-1">
          <mxGeometry x="665" y="110" width="90" height="90" as="geometry" />
        </mxCell>
        <mxCell id="O6p-Ms7gmNQ-Mlg78TJN-40" style="edgeStyle=orthogonalEdgeStyle;rounded=0;orthogonalLoop=1;jettySize=auto;html=1;exitX=0.5;exitY=1;exitDx=0;exitDy=0;strokeColor=#000000;" edge="1" parent="WIyWlLk6GJQsqaUBKTNV-1" source="O6p-Ms7gmNQ-Mlg78TJN-32" target="O6p-Ms7gmNQ-Mlg78TJN-39">
          <mxGeometry relative="1" as="geometry" />
        </mxCell>
        <mxCell id="O6p-Ms7gmNQ-Mlg78TJN-32" value="GameObject:&lt;br&gt;&lt;br&gt;Name - hitObject&lt;br&gt;Value - None (Game Object)&lt;br&gt;Tooltip -&amp;nbsp;&lt;br&gt;Category -&lt;br&gt;Input - False&lt;br&gt;Output - False" style="whiteSpace=wrap;html=1;aspect=fixed;" vertex="1" parent="WIyWlLk6GJQsqaUBKTNV-1">
          <mxGeometry x="630" y="250" width="160" height="160" as="geometry" />
        </mxCell>
        <mxCell id="O6p-Ms7gmNQ-Mlg78TJN-42" style="edgeStyle=orthogonalEdgeStyle;rounded=0;orthogonalLoop=1;jettySize=auto;html=1;exitX=0.5;exitY=1;exitDx=0;exitDy=0;strokeColor=#000000;" edge="1" parent="WIyWlLk6GJQsqaUBKTNV-1" source="O6p-Ms7gmNQ-Mlg78TJN-39" target="O6p-Ms7gmNQ-Mlg78TJN-41">
          <mxGeometry relative="1" as="geometry" />
        </mxCell>
        <mxCell id="O6p-Ms7gmNQ-Mlg78TJN-39" value="Vector3:&lt;br&gt;&lt;br&gt;Name - hitPosition&lt;br&gt;Value - X0Y0Z0&lt;br&gt;Tooltip -&amp;nbsp;&lt;br&gt;Category -&amp;nbsp;&lt;br&gt;Input - False&lt;br&gt;Output - False" style="whiteSpace=wrap;html=1;aspect=fixed;" vertex="1" parent="WIyWlLk6GJQsqaUBKTNV-1">
          <mxGeometry x="630" y="440" width="160" height="160" as="geometry" />
        </mxCell>
        <mxCell id="O6p-Ms7gmNQ-Mlg78TJN-41" value="GameObject:&lt;br&gt;&lt;br&gt;Name - spawnObject&lt;br&gt;Value - Cube.Prefab&lt;br&gt;Tooltip -&amp;nbsp; The Object to spawn.&lt;br&gt;Category -&lt;br&gt;Input - True&lt;br&gt;Output - False" style="whiteSpace=wrap;html=1;aspect=fixed;" vertex="1" parent="WIyWlLk6GJQsqaUBKTNV-1">
          <mxGeometry x="605" y="660" width="210" height="210" as="geometry" />
        </mxCell>
      </root>
    </mxGraphModel>
  </diagram>
</mxfile>
